<svg width="26" height="26" fill="none" xmlns="http://www.w3.org/2000/svg"><g clip-path="url(#clip0_465_289)"><path d="M13 .85C19.716.85 25.15 6.285 25.15 13c0 6.716-5.435 12.15-12.15 12.15C6.284 25.15.85 19.715.85 13 .85 6.284 6.285.85 13 .85zm0 2.175A9.969 9.969 0 003.025 13 9.969 9.969 0 0013 22.975 9.969 9.969 0 0022.975 13 9.969 9.969 0 0013 3.025zm3.873 6.06a1.088 1.088 0 011.537 1.539l-6.289 6.29a1.088 1.088 0 01-1.538 0L7.59 13.92a1.088 1.088 0 01-.001-1.538l.083-.074a1.087 1.087 0 011.455.074l2.225 2.224 5.521-5.52z" fill="#198580" stroke="#198580" stroke-width=".3"/></g><defs><clipPath id="clip0_465_289"><path fill="#fff" d="M0 0h26v26H0z"/></clipPath></defs></svg>