<svg width="24" height="24" fill="none" xmlns="http://www.w3.org/2000/svg"><path d="M3 9h18v11a1 1 0 01-1 1H4a1 1 0 01-1-1V9zm1-5h16a1 1 0 011 1v4H3V5a1 1 0 011-1v0zm12-1v3M8 3v3" stroke="#000" stroke-width="1.333" stroke-linecap="round" stroke-linejoin="round"/><circle cx="7" cy="12" r="1" fill="#000"/><circle cx="7" cy="16" r="1" fill="#000"/><circle cx="12" cy="12" r="1" fill="#000"/><circle cx="12" cy="16" r="1" fill="#000"/><circle cx="17" cy="12" r="1" fill="#000"/><circle cx="17" cy="16" r="1" fill="#000"/></svg>