<svg width="102" height="37" fill="none" xmlns="http://www.w3.org/2000/svg"><g clip-path="url(#clip0_857_22)" fill="#fff"><path d="M.607 14V.73h3.747c1.154 0 2.175.255 3.062.765a5.15 5.15 0 012.05 2.179c.487.941.733 2.023.74 3.244v.848c0 1.252-.244 2.348-.73 3.29a5.061 5.061 0 01-2.07 2.17c-.892.504-1.934.762-3.125.774H.607zm1.75-11.83v10.4H4.2c1.349 0 2.397-.42 3.144-1.258.754-.84 1.13-2.033 1.13-3.583v-.774c0-1.507-.355-2.677-1.066-3.51C6.703 2.607 5.7 2.182 4.4 2.17H2.357zm15.368 6.462h-3.118V14h-1.759V.73h4.394c1.494 0 2.643.34 3.445 1.02.808.68 1.212 1.671 1.212 2.972 0 .826-.225 1.546-.674 2.16-.444.614-1.064 1.072-1.86 1.376l3.117 5.633v.11h-1.877l-2.88-5.37zM14.607 7.2h2.69c.868 0 1.558-.225 2.068-.675.517-.45.775-1.05.775-1.804 0-.82-.246-1.45-.738-1.887-.486-.438-1.191-.66-2.115-.665h-2.68V7.2zm17.254.665H26.11v4.703h6.681V14H24.36V.73h8.34v1.44h-6.59v4.265h5.751v1.431zm10.436 2.67h-5.56L35.49 14h-1.805L38.752.73h1.531L45.36 14h-1.796l-1.267-3.463zm-5.03-1.44h4.511l-2.26-6.206-2.252 6.207zM49.406.73l4.339 10.829L58.084.729h2.27V14h-1.75V8.832l.164-5.578L54.41 14h-1.34L48.723 3.282l.174 5.55V14h-1.75V.73h2.26zm17.409 7.1l-1.623 1.687V14h-1.75V.73h1.75v6.562L71.091.729h2.114L67.982 6.59 73.615 14H71.52l-4.703-6.17zm15.659 2.708h-5.56L75.666 14h-1.805L78.93.73h1.531L85.538 14h-1.796l-1.267-3.463zm-5.032-1.44h4.512l-2.26-6.207-2.252 6.207zM89.584.729l4.339 10.829L98.26.729h2.27V14h-1.75V8.832l.164-5.578L94.588 14h-1.34L88.901 3.282l.172 5.55V14h-1.75V.73h2.261zM11.04 24.178H6.775v11.83H5.034v-11.83H.777v-1.44H11.04v1.44zm11.922 5.624c0 1.3-.218 2.436-.656 3.409-.438.966-1.057 1.704-1.86 2.215-.801.51-1.737.765-2.807.765-1.045 0-1.971-.255-2.78-.766-.808-.516-1.437-1.248-1.886-2.196-.444-.954-.672-2.057-.684-3.309v-.957c0-1.276.222-2.403.665-3.381.444-.979 1.07-1.726 1.878-2.242.814-.523 1.744-.784 2.79-.784 1.063 0 1.998.258 2.806.774.815.51 1.44 1.255 1.878 2.234.438.972.656 2.105.656 3.4v.838zm-1.74-.857c0-1.574-.317-2.78-.949-3.619-.631-.844-1.516-1.266-2.652-1.266-1.106 0-1.978.422-2.616 1.267-.632.838-.957 2.005-.975 3.5v.975c0 1.525.319 2.725.957 3.6.644.869 1.528 1.303 2.652 1.303 1.13 0 2.006-.41 2.625-1.23.62-.826.94-2.008.957-3.546v-.984zm13.708-6.207v9.023c-.006 1.252-.401 2.276-1.185 3.072-.778.796-1.835 1.243-3.172 1.34l-.465.018c-1.452 0-2.61-.392-3.473-1.176-.862-.784-1.3-1.862-1.312-3.235v-9.042h1.732v8.987c0 .96.264 1.707.793 2.242.528.529 1.282.793 2.26.793.99 0 1.747-.264 2.27-.793.528-.529.793-1.273.793-2.233v-8.996h1.759zm7.629 7.902h-3.117v5.369h-1.76V22.738h4.394c1.494 0 2.643.34 3.445 1.02.808.681 1.212 1.672 1.212 2.972 0 .826-.225 1.547-.674 2.16-.444.614-1.064 1.073-1.86 1.377l3.117 5.633v.109H45.44l-2.88-5.369zm-3.117-1.43h2.688c.87 0 1.559-.226 2.07-.675.516-.45.774-1.051.774-1.805 0-.82-.246-1.45-.738-1.887-.486-.437-1.191-.659-2.115-.665h-2.68v5.031z"/></g><defs><clipPath id="clip0_857_22"><path fill="#fff" d="M0 0h101.111v36.556H0z"/></clipPath></defs></svg>