<svg width="32" height="32" fill="none" xmlns="http://www.w3.org/2000/svg"><g opacity=".8" clip-path="url(#clip0_2115_0)" fill="#313131"><path d="M16 32a16 16 0 1116-16 16.018 16.018 0 01-16 16zM16 .914A15.086 15.086 0 1031.086 16 15.103 15.103 0 0016 .914z"/><path d="M16 5.748a.432.432 0 01-.433-.432v-.884a.432.432 0 11.865 0v.884a.432.432 0 01-.432.432zm0 23a.432.432 0 01-.433-.432v-.884a.432.432 0 11.865 0v.884a.433.433 0 01-.432.432zm7.432-19.253a.432.432 0 01-.305-.738l.624-.625a.432.432 0 11.611.611l-.624.625a.433.433 0 01-.306.127zm-16 14.989a.432.432 0 01-.305-.738l.624-.625a.432.432 0 01.612.612l-.625.625a.432.432 0 01-.306.126zm20.884-8.052h-.884a.432.432 0 110-.864h.884a.432.432 0 110 .864zm-24 0h-.884a.432.432 0 110-.864h.884a.432.432 0 110 .864zm20.736 7.052a.433.433 0 01-.306-.126l-.625-.625a.432.432 0 01.612-.612l.624.625a.433.433 0 01-.305.738zM8.062 9.495a.432.432 0 01-.306-.127l-.624-.625a.432.432 0 11.611-.611l.625.625a.433.433 0 01-.306.738zm5.596 7.802a.433.433 0 01-.15-.838l2.06-.762V9.946a.432.432 0 01.865 0V16a.433.433 0 01-.282.406l-2.343.864a.436.436 0 01-.15.027z"/></g><defs><clipPath id="clip0_2115_0"><path fill="#fff" d="M0 0h32v32H0z"/></clipPath></defs></svg>